Normalized EMG Linear Envelopes
nRows=59
nColumns=17

endheader
time	        VM	        VL	        RF	       GRA	        TA	   ADDLONG	   SEMIMEM	      BFLH	        GM	        GL	       TFL	   GLUTMAX	   GLUTMED	      PIRI	    OBTINT	        QF	
2.145	  0.095975	  0.096968	  0.533191	  0.305893	  0.344115	  0.109312	  0.051391	  0.075112	  0.089652	  0.063408	  0.317561	  0.099154	  0.110462	  0.155459	  0.170560	  0.082329	
2.1455	  0.096132	  0.096577	  0.530873	  0.305340	  0.343490	  0.109448	  0.051886	  0.075674	  0.090820	  0.064197	  0.317230	  0.100005	  0.112460	  0.156315	  0.170845	  0.082588	
2.146	  0.096283	  0.096175	  0.528496	  0.304784	  0.342878	  0.109582	  0.052382	  0.076232	  0.091991	  0.064994	  0.316907	  0.100843	  0.114476	  0.157181	  0.171109	  0.082851	
2.1465	  0.096429	  0.095762	  0.526062	  0.304226	  0.342280	  0.109715	  0.052877	  0.076785	  0.093164	  0.065798	  0.316592	  0.101669	  0.116508	  0.158057	  0.171352	  0.083118	
2.147	  0.096567	  0.095338	  0.523573	  0.303666	  0.341694	  0.109847	  0.053371	  0.077332	  0.094338	  0.066610	  0.316284	  0.102481	  0.118555	  0.158945	  0.171573	  0.083389	
2.1475	  0.096700	  0.094904	  0.521031	  0.303103	  0.341119	  0.109976	  0.053865	  0.077873	  0.095512	  0.067428	  0.315984	  0.103279	  0.120618	  0.159844	  0.171773	  0.083666	
2.148	  0.096825	  0.094458	  0.518437	  0.302538	  0.340555	  0.110104	  0.054357	  0.078407	  0.096687	  0.068253	  0.315691	  0.104062	  0.122695	  0.160754	  0.171951	  0.083947	
2.1485	  0.096944	  0.094002	  0.515794	  0.301971	  0.340002	  0.110230	  0.054847	  0.078935	  0.097860	  0.069083	  0.315406	  0.104830	  0.124787	  0.161675	  0.172107	  0.084233	
2.149	  0.097056	  0.093537	  0.513102	  0.301401	  0.339457	  0.110355	  0.055336	  0.079455	  0.099032	  0.069919	  0.315128	  0.105583	  0.126893	  0.162607	  0.172242	  0.084524	
2.1495	  0.097161	  0.093061	  0.510365	  0.300830	  0.338921	  0.110477	  0.055823	  0.079967	  0.100202	  0.070759	  0.314857	  0.106319	  0.129011	  0.163550	  0.172355	  0.084821	
2.15	  0.097259	  0.092576	  0.507583	  0.300256	  0.338393	  0.110598	  0.056308	  0.080471	  0.101368	  0.071604	  0.314592	  0.107039	  0.131143	  0.164505	  0.172448	  0.085122	
2.1505	  0.097349	  0.092082	  0.504760	  0.299681	  0.337873	  0.110717	  0.056790	  0.080966	  0.102530	  0.072452	  0.314333	  0.107741	  0.133287	  0.165470	  0.172520	  0.085430	
2.151	  0.097433	  0.091579	  0.501897	  0.299105	  0.337360	  0.110834	  0.057269	  0.081453	  0.103687	  0.073303	  0.314079	  0.108425	  0.135443	  0.166446	  0.172572	  0.085743	
2.1515	  0.097509	  0.091067	  0.498997	  0.298528	  0.336853	  0.110949	  0.057746	  0.081930	  0.104839	  0.074157	  0.313831	  0.109091	  0.137610	  0.167433	  0.172604	  0.086062	
2.152	  0.097577	  0.090547	  0.496061	  0.297951	  0.336351	  0.111062	  0.058220	  0.082397	  0.105983	  0.075013	  0.313586	  0.109739	  0.139787	  0.168432	  0.172616	  0.086387	
2.1525	  0.097639	  0.090019	  0.493093	  0.297373	  0.335854	  0.111172	  0.058690	  0.082855	  0.107120	  0.075870	  0.313346	  0.110367	  0.141976	  0.169441	  0.172608	  0.086718	
2.153	  0.097692	  0.089482	  0.490092	  0.296796	  0.335360	  0.111280	  0.059156	  0.083302	  0.108248	  0.076728	  0.313109	  0.110976	  0.144173	  0.170462	  0.172582	  0.087055	
2.1535	  0.097739	  0.088939	  0.487063	  0.296218	  0.334869	  0.111386	  0.059618	  0.083739	  0.109367	  0.077585	  0.312874	  0.111564	  0.146381	  0.171493	  0.172536	  0.087398	
2.154	  0.097777	  0.088388	  0.484005	  0.295642	  0.334379	  0.111488	  0.060077	  0.084165	  0.110476	  0.078443	  0.312641	  0.112133	  0.148596	  0.172536	  0.172471	  0.087747	
2.1545	  0.097808	  0.087830	  0.480920	  0.295065	  0.333890	  0.111588	  0.060530	  0.084579	  0.111573	  0.079299	  0.312408	  0.112680	  0.150820	  0.173590	  0.172389	  0.088103	
2.155	  0.097831	  0.087266	  0.477811	  0.294490	  0.333400	  0.111685	  0.060979	  0.084982	  0.112658	  0.080154	  0.312175	  0.113206	  0.153052	  0.174655	  0.172288	  0.088465	
2.1555	  0.097846	  0.086695	  0.474677	  0.293916	  0.332908	  0.111779	  0.061423	  0.085373	  0.113730	  0.081006	  0.311941	  0.113710	  0.155290	  0.175731	  0.172170	  0.088834	
2.156	  0.097852	  0.086118	  0.471522	  0.293342	  0.332413	  0.111870	  0.061862	  0.085752	  0.114788	  0.081856	  0.311705	  0.114191	  0.157535	  0.176818	  0.172034	  0.089209	
2.1565	  0.097851	  0.085535	  0.468345	  0.292770	  0.331914	  0.111956	  0.062295	  0.086118	  0.115831	  0.082702	  0.311466	  0.114650	  0.159785	  0.177916	  0.171880	  0.089591	
2.157	  0.097842	  0.084948	  0.465148	  0.292200	  0.331410	  0.112040	  0.062723	  0.086472	  0.116857	  0.083544	  0.311223	  0.115085	  0.162041	  0.179024	  0.171710	  0.089979	
2.1575	  0.097825	  0.084354	  0.461933	  0.291631	  0.330899	  0.112119	  0.063145	  0.086813	  0.117867	  0.084380	  0.310976	  0.115496	  0.164300	  0.180143	  0.171522	  0.090374	
2.158	  0.097800	  0.083756	  0.458700	  0.291064	  0.330380	  0.112193	  0.063561	  0.087142	  0.118859	  0.085212	  0.310724	  0.115883	  0.166564	  0.181272	  0.171316	  0.090775	
2.1585	  0.097767	  0.083153	  0.455451	  0.290499	  0.329852	  0.112264	  0.063972	  0.087458	  0.119832	  0.086036	  0.310465	  0.116245	  0.168831	  0.182412	  0.171094	  0.091182	
2.159	  0.097727	  0.082546	  0.452188	  0.289937	  0.329313	  0.112329	  0.064377	  0.087762	  0.120785	  0.086854	  0.310201	  0.116582	  0.171102	  0.183561	  0.170854	  0.091596	
2.1595	  0.097679	  0.081934	  0.448912	  0.289378	  0.328763	  0.112390	  0.064776	  0.088053	  0.121719	  0.087664	  0.309930	  0.116895	  0.173376	  0.184720	  0.170598	  0.092016	
2.16	  0.097623	  0.081318	  0.445623	  0.288822	  0.328200	  0.112445	  0.065170	  0.088332	  0.122631	  0.088465	  0.309652	  0.117182	  0.175652	  0.185889	  0.170324	  0.092443	
2.1605	  0.097560	  0.080698	  0.442324	  0.288270	  0.327623	  0.112494	  0.065557	  0.088598	  0.123523	  0.089256	  0.309366	  0.117444	  0.177931	  0.187067	  0.170033	  0.092876	
2.161	  0.097490	  0.080073	  0.439014	  0.287722	  0.327031	  0.112538	  0.065938	  0.088852	  0.124393	  0.090037	  0.309071	  0.117681	  0.180213	  0.188254	  0.169726	  0.093315	
2.1615	  0.097413	  0.079445	  0.435696	  0.287179	  0.326422	  0.112576	  0.066314	  0.089094	  0.125240	  0.090807	  0.308768	  0.117893	  0.182496	  0.189450	  0.169402	  0.093760	
2.162	  0.097328	  0.078814	  0.432370	  0.286641	  0.325796	  0.112607	  0.066683	  0.089323	  0.126066	  0.091566	  0.308454	  0.118079	  0.184781	  0.190656	  0.169063	  0.094212	
2.1625	  0.097237	  0.078178	  0.429036	  0.286109	  0.325152	  0.112631	  0.067046	  0.089541	  0.126868	  0.092311	  0.308131	  0.118240	  0.187068	  0.191870	  0.168709	  0.094669	
2.163	  0.097138	  0.077539	  0.425697	  0.285582	  0.324488	  0.112649	  0.067403	  0.089746	  0.127648	  0.093043	  0.307796	  0.118375	  0.189355	  0.193093	  0.168340	  0.095134	
2.1635	  0.097033	  0.076897	  0.422351	  0.285060	  0.323804	  0.112660	  0.067755	  0.089940	  0.128405	  0.093761	  0.307450	  0.118485	  0.191643	  0.194325	  0.167958	  0.095605	
2.164	  0.096921	  0.076252	  0.419001	  0.284546	  0.323099	  0.112663	  0.068100	  0.090122	  0.129138	  0.094464	  0.307092	  0.118570	  0.193930	  0.195566	  0.167562	  0.096082	
2.1645	  0.096802	  0.075604	  0.415646	  0.284037	  0.322372	  0.112658	  0.068440	  0.090293	  0.129849	  0.095152	  0.306721	  0.118629	  0.196217	  0.196815	  0.167155	  0.096566	
2.165	  0.096677	  0.074952	  0.412288	  0.283535	  0.321622	  0.112646	  0.068774	  0.090454	  0.130536	  0.095824	  0.306337	  0.118663	  0.198503	  0.198073	  0.166737	  0.097056	
2.1655	  0.096546	  0.074299	  0.408926	  0.283040	  0.320849	  0.112626	  0.069103	  0.090603	  0.131200	  0.096481	  0.305940	  0.118671	  0.200787	  0.199339	  0.166308	  0.097553	
2.166	  0.096409	  0.073642	  0.405562	  0.282552	  0.320052	  0.112597	  0.069426	  0.090742	  0.131841	  0.097121	  0.305528	  0.118654	  0.203069	  0.200614	  0.165870	  0.098056	
2.1665	  0.096266	  0.072984	  0.402194	  0.282072	  0.319231	  0.112560	  0.069743	  0.090870	  0.132458	  0.097745	  0.305101	  0.118612	  0.205349	  0.201896	  0.165424	  0.098566	
2.167	  0.096118	  0.072324	  0.398824	  0.281599	  0.318385	  0.112513	  0.070055	  0.090989	  0.133051	  0.098351	  0.304659	  0.118544	  0.207626	  0.203186	  0.164970	  0.099083	
2.1675	  0.095965	  0.071661	  0.395452	  0.281134	  0.317513	  0.112458	  0.070362	  0.091098	  0.133621	  0.098941	  0.304202	  0.118452	  0.209901	  0.204484	  0.164511	  0.099605	
2.168	  0.095808	  0.070997	  0.392077	  0.280676	  0.316616	  0.112394	  0.070664	  0.091197	  0.134167	  0.099513	  0.303728	  0.118335	  0.212171	  0.205789	  0.164046	  0.100135	
2.1685	  0.095646	  0.070331	  0.388700	  0.280227	  0.315692	  0.112321	  0.070960	  0.091286	  0.134689	  0.100068	  0.303237	  0.118194	  0.214438	  0.207102	  0.163578	  0.100671	
2.169	  0.095480	  0.069664	  0.385320	  0.279786	  0.314741	  0.112238	  0.071251	  0.091366	  0.135187	  0.100605	  0.302728	  0.118029	  0.216700	  0.208421	  0.163107	  0.101214	
2.1695	  0.095310	  0.068995	  0.381938	  0.279353	  0.313763	  0.112146	  0.071536	  0.091437	  0.135661	  0.101125	  0.302202	  0.117840	  0.218958	  0.209747	  0.162635	  0.101764	
2.17	  0.095136	  0.068325	  0.378555	  0.278929	  0.312757	  0.112045	  0.071817	  0.091499	  0.136112	  0.101627	  0.301657	  0.117628	  0.221210	  0.211080	  0.162162	  0.102320	
2.1705	  0.094959	  0.067654	  0.375170	  0.278513	  0.311723	  0.111934	  0.072092	  0.091552	  0.136540	  0.102112	  0.301093	  0.117393	  0.223457	  0.212419	  0.161691	  0.102885	
2.171	  0.094779	  0.066982	  0.371784	  0.278107	  0.310662	  0.111814	  0.072362	  0.091596	  0.136945	  0.102581	  0.300509	  0.117135	  0.225698	  0.213765	  0.161222	  0.103456	
2.1715	  0.094596	  0.066308	  0.368398	  0.277709	  0.309574	  0.111684	  0.072626	  0.091632	  0.137327	  0.103034	  0.299905	  0.116854	  0.227932	  0.215117	  0.160756	  0.104035	
2.172	  0.094410	  0.065634	  0.365012	  0.277322	  0.308459	  0.111544	  0.072886	  0.091659	  0.137688	  0.103470	  0.299280	  0.116552	  0.230159	  0.216476	  0.160294	  0.104622	
2.1725	  0.094222	  0.064958	  0.361625	  0.276944	  0.307318	  0.111395	  0.073140	  0.091678	  0.138026	  0.103892	  0.298633	  0.116228	  0.232378	  0.217841	  0.159837	  0.105217	
2.173	  0.094031	  0.064282	  0.358240	  0.276576	  0.306151	  0.111236	  0.073390	  0.091688	  0.138344	  0.104298	  0.297963	  0.115883	  0.234588	  0.219213	  0.159387	  0.105820	
2.1735	  0.093839	  0.063605	  0.354856	  0.276219	  0.304960	  0.111068	  0.073634	  0.091691	  0.138641	  0.104690	  0.297269	  0.115517	  0.236789	  0.220593	  0.158944	  0.106432	
2.174	  0.093645	  0.062927	  0.351473	  0.275872	  0.303744	  0.110891	  0.073873	  0.091685	  0.138918	  0.105068	  0.296550	  0.115130	  0.238979	  0.221978	  0.158510	  0.107052	
